<svg xmlns="http://www.w3.org/2000/svg" data-name="Layer 16" viewBox="0 0 32 32" id="fishing-hook"><path fill="#f66" d="M16,2a3.0033,3.0033,0,0,0-3,3V8a1,1,0,0,0,1,1h4a1,1,0,0,0,1-1V5A3.0033,3.0033,0,0,0,16,2Z"></path><path fill="#66c8ff" d="M16,7a5.0059,5.0059,0,0,0-5,5c0,2.24,1.7734,9,5,9s5-6.76,5-9A5.0059,5.0059,0,0,0,16,7Z"></path><path fill="#e6e7e8" d="M22.707,23.293A1,1,0,0,0,21,24v2a2,2,0,0,1-4,0V20H15v6a2,2,0,0,1-4,0V24a1,1,0,0,0-1.707-.707l-2.5,2.5L8.207,27.207,9.02,26.3945A3.9821,3.9821,0,0,0,16,28.6178a3.9821,3.9821,0,0,0,6.98-2.2233L23.793,27.207,25.207,25.793Z"></path><path fill="#4dd1ff" d="M20.67,14.33C20.03,17.18,18.43,21,16,21c-2.64,0-4.3-4.51-4.83-7.38,0.94,0.31,1.31.94,2.82,0.94,2,0,2-1.12,4-1.12C19.42,13.44,19.83,14.01,20.67,14.33Z"></path><path fill="#1ab9ff" d="M30,15.56a4.5369,4.5369,0,0,1-2.4907-.6875,2.8656,2.8656,0,0,0-3.0288,0,4.8526,4.8526,0,0,1-4.979,0,2.8524,2.8524,0,0,0-3.0205,0,4.5289,4.5289,0,0,1-2.4873.6875,4.5289,4.5289,0,0,1-2.4873-.6875,2.5922,2.5922,0,0,0-1.51-.4326,2.598,2.598,0,0,0-1.5107.4326A4.5322,4.5322,0,0,1,5.998,15.56,4.5308,4.5308,0,0,1,3.51,14.8726,2.5939,2.5939,0,0,0,2,14.44v-2a4.5308,4.5308,0,0,1,2.4878.6875,2.5939,2.5939,0,0,0,1.51.4326,2.5939,2.5939,0,0,0,1.51-.4326A4.5327,4.5327,0,0,1,9.9966,12.44a4.5289,4.5289,0,0,1,2.4873.6875,2.5922,2.5922,0,0,0,1.51.4326,2.5958,2.5958,0,0,0,1.51-.4321,4.8434,4.8434,0,0,1,4.9756,0,2.86,2.86,0,0,0,3.0249,0,4.8564,4.8564,0,0,1,4.9819,0A2.6073,2.6073,0,0,0,30,13.56v2Z"></path><rect width="2" height="2" x="4" y="20" fill="#1ab9ff"></rect><rect width="2" height="2" x="8" y="17" fill="#1ab9ff"></rect><rect width="2" height="2" x="22" y="20" fill="#1ab9ff"></rect><rect width="2" height="2" x="26" y="17" fill="#1ab9ff"></rect></svg>