<svg xmlns="http://www.w3.org/2000/svg" width="24" height="24" viewBox="0 0 24 24" fill="none">
<path d="M23.0298 7.28105L20.2267 10.0842C19.6604 16.6485 14.1245 21.7504 7.49919 21.7504C6.13794 21.7504 5.01575 21.5348 4.16357 21.1092C3.47638 20.7651 3.19513 20.3967 3.12482 20.2917C3.06212 20.1977 3.02148 20.0907 3.00594 19.9787C2.9904 19.8668 3.00035 19.7528 3.03506 19.6453C3.06977 19.5377 3.12833 19.4394 3.20638 19.3577C3.28442 19.2759 3.37992 19.2129 3.48575 19.1732C3.51013 19.1639 5.75826 18.3004 7.18607 16.657C6.39424 16.006 5.70302 15.2414 5.13482 14.3882C3.97232 12.6623 2.67107 9.66417 3.07232 5.18386C3.08504 5.0415 3.13817 4.90573 3.22546 4.79256C3.31275 4.67938 3.43057 4.5935 3.56503 4.54503C3.69949 4.49657 3.845 4.48753 3.98443 4.51899C4.12385 4.55045 4.25138 4.6211 4.352 4.72261C4.38482 4.75542 7.472 7.82574 11.2464 8.82136V8.25042C11.2449 7.65173 11.3633 7.0588 11.5945 6.50655C11.8257 5.9543 12.1651 5.4539 12.5926 5.0348C13.0078 4.62017 13.5019 4.2929 14.0457 4.07231C14.5894 3.85172 15.1718 3.74227 15.7586 3.75042C16.5457 3.75819 17.3173 3.96947 17.9986 4.36374C18.6799 4.75801 19.2475 5.32184 19.6464 6.00042H22.4992C22.6476 6.00031 22.7927 6.04423 22.9162 6.12663C23.0396 6.20904 23.1358 6.32621 23.1927 6.46333C23.2495 6.60045 23.2643 6.75134 23.2353 6.8969C23.2064 7.04247 23.1348 7.17616 23.0298 7.28105Z" fill="#6E727F"/>
</svg>